<?xml version="1.0" standalone="no"?>
<!DOCTYPE svg PUBLIC "-//W3C//DTD SVG 20010904//EN"
 "http://www.w3.org/TR/2001/REC-SVG-20010904/DTD/svg10.dtd">
<svg version="1.0" xmlns="http://www.w3.org/2000/svg"
 width="500.000000pt" height="500.000000pt" viewBox="0 0 500.000000 500.000000"
 preserveAspectRatio="xMidYMid meet">
<metadata>
Created by potrace 1.14, written by Peter Selinger 2001-2017
</metadata>
<g transform="translate(0.000000,500.000000) scale(0.100000,-0.100000)"
fill="#000000" stroke="none">
<path d="M2260 4929 c-577 -64 -1084 -304 -1484 -705 -386 -385 -614 -850
-697 -1419 -17 -115 -17 -481 -1 -600 64 -454 216 -825 483 -1182 86 -114 299
-332 414 -423 363 -287 791 -465 1245 -520 132 -16 442 -14 580 4 312 40 602
134 875 284 399 219 737 557 957 957 106 194 168 349 223 560 149 574 89 1164
-170 1690 -128 260 -280 470 -481 666 -383 371 -826 592 -1354 674 -125 19
-469 28 -590 14z m-205 -783 c67 -28 65 -17 63 -591 l-3 -516 -404 -214 c-222
-117 -407 -217 -412 -222 -6 -6 152 -95 399 -226 225 -119 412 -217 416 -217
3 0 6 197 6 438 l1 437 427 539 c281 355 439 547 462 560 33 20 53 21 410 24
206 2 389 1 406 -3 18 -3 44 -18 59 -32 22 -23 26 -35 23 -68 -3 -36 -62 -116
-538 -734 -294 -381 -534 -699 -534 -706 1 -7 69 -102 153 -212 221 -291 618
-813 828 -1090 187 -248 196 -264 172 -317 -25 -54 -43 -56 -461 -56 -232 0
-398 4 -420 10 -21 6 -50 21 -65 34 -16 13 -228 281 -473 595 l-445 571 -5
-574 c-5 -621 -2 -591 -61 -622 -42 -21 -677 -21 -719 1 -64 33 -60 -76 -60
1595 0 1681 -5 1566 63 1595 47 21 663 21 712 1z"/>
</g>
</svg>
