<?xml version="1.0" standalone="no"?>
<!DOCTYPE svg PUBLIC "-//W3C//DTD SVG 20010904//EN"
 "http://www.w3.org/TR/2001/REC-SVG-20010904/DTD/svg10.dtd">
<svg version="1.0" xmlns="http://www.w3.org/2000/svg"
 width="500.000000pt" height="500.000000pt" viewBox="0 0 500.000000 500.000000"
 preserveAspectRatio="xMidYMid meet">
<metadata>
Created by potrace 1.14, written by Peter Selinger 2001-2017
</metadata>
<g transform="translate(0.000000,500.000000) scale(0.100000,-0.100000)"
fill="#000000" stroke="none">
<path d="M2478 4946 c-1 -2 -64 -7 -138 -10 -74 -4 -137 -9 -140 -11 -3 -1
-29 -6 -58 -9 -30 -3 -73 -11 -95 -16 -23 -5 -56 -11 -73 -14 -57 -10 -277
-77 -359 -109 -410 -160 -799 -454 -1061 -802 -193 -256 -324 -525 -409 -835
-33 -124 -53 -218 -61 -285 -3 -32 -8 -68 -11 -79 -9 -39 -11 -430 -2 -506 18
-164 32 -239 65 -370 25 -102 84 -284 102 -315 6 -11 25 -54 43 -95 35 -83 94
-196 115 -221 8 -8 14 -19 14 -23 0 -14 154 -235 210 -300 124 -145 243 -258
422 -401 49 -39 206 -139 294 -187 232 -126 546 -232 779 -264 22 -3 51 -8 65
-10 131 -24 512 -24 655 1 257 45 429 92 610 168 61 26 313 154 329 168 6 5
34 24 61 42 278 180 550 456 725 736 91 147 230 430 244 501 2 8 6 22 9 30 42
106 101 389 115 550 9 105 8 361 -1 455 -8 82 -34 245 -47 295 -5 19 -11 46
-14 60 -21 110 -103 335 -174 477 -164 330 -357 577 -632 807 -47 39 -87 73
-90 76 -20 21 -254 168 -340 213 -165 87 -373 167 -527 203 -97 23 -105 24
-133 30 -14 3 -32 7 -40 9 -8 2 -42 7 -75 11 -33 3 -63 8 -66 10 -4 2 -69 6
-145 10 -77 3 -144 7 -151 9 -6 2 -13 2 -15 1z m662 -2741 c10 -12 10 -15 -4
-15 -9 0 -16 7 -16 15 0 8 2 15 4 15 2 0 9 -7 16 -15z"/>
</g>
</svg>
